<?xml version="1.0" encoding="UTF-8" standalone="no"?>
<!-- Created with Inkscape (http://www.inkscape.org/) -->

<svg
   version="1.1"
   id="svg1"
   width="2000"
   height="2000"
   viewBox="0 0 2000 2000"
   sodipodi:docname="LOGOBL.svg"
   inkscape:version="1.4.2 (2aeb623e1d, 2025-05-12)"
   xmlns:inkscape="http://www.inkscape.org/namespaces/inkscape"
   xmlns:sodipodi="http://sodipodi.sourceforge.net/DTD/sodipodi-0.dtd"
   xmlns="http://www.w3.org/2000/svg"
   xmlns:svg="http://www.w3.org/2000/svg">
  <sodipodi:namedview
     id="namedview1"
     pagecolor="#ffffff"
     bordercolor="#000000"
     borderopacity="0.25"
     inkscape:showpageshadow="2"
     inkscape:pageopacity="0.0"
     inkscape:pagecheckerboard="0"
     inkscape:deskcolor="#d1d1d1"
     showgrid="false"
     inkscape:zoom="0.3525"
     inkscape:cx="956.02837"
     inkscape:cy="1031.2057"
     inkscape:window-width="1920"
     inkscape:window-height="937"
     inkscape:window-x="0"
     inkscape:window-y="0"
     inkscape:window-maximized="1"
     inkscape:current-layer="g1" />
  <defs
     id="defs1" />
  <g
     id="g1">
    <path
       d="m 546.6414,1874.3605 56.43082,-123.8529 46.87728,21.3585 q 23.52513,10.7188 31.4258,24.5541 8.15248,13.7411 -0.51706,32.7689 -8.59073,18.8546 -24.09031,23.0726 -15.49959,4.2179 -38.85174,-6.4219 l -31.82811,-14.5018 -23.01369,50.5098 z m 117.5474,-52.1398 q 5.6746,-12.4546 0.53747,-20.4351 -4.96415,-7.9018 -20.01331,-14.7587 l -31.82812,-14.5018 -20.17638,44.2827 32.00109,14.5806 q 15.04916,6.8568 24.74215,4.3798 9.77182,-2.6499 14.7371,-13.5475 z m 107.59154,-6.1263 16.89399,4.5195 17.89568,145.6764 -18.73023,-5.0108 -4.54501,-43.3251 -55.45631,-14.8357 -25.57042,35.2686 -18.73029,-5.0108 z m -33.93921,73.1713 43.70401,11.6918 -4.20339,-41.6596 q -1.60234,-17.5478 -0.79837,-27.1715 -4.10892,8.7394 -14.25898,23.1432 z m 119.89797,85.2569 12.22976,-135.5523 19.12122,1.7253 60.08703,112.4934 9.58221,-106.2079 17.98533,1.6227 -12.22985,135.5523 -19.12113,-1.7252 -60.0529,-112.8721 -9.61644,106.5864 z m 202.8397,-129.3768 17.4302,-1.4227 65.8253,131.1826 -19.3246,1.5773 -18.8448,-39.2759 -57.2162,4.6701 -12.2262,41.812 -19.3247,1.5774 z m -7.3664,80.3222 45.0909,-3.6805 -17.9633,-37.8221 q -7.408,-15.9879 -9.8863,-25.3216 -0.9319,9.612 -5.6492,26.5897 z m 141.3709,40.7011 -35.4561,-131.4033 26.9781,-7.2794 65.0679,99.5901 6.1395,-118.8037 26.9781,-7.2794 35.456,131.4034 -17.4348,4.7043 -29.9593,-111.0321 -7.2961,121.0845 -15.7831,4.2587 -67.2148,-100.9796 29.9593,111.0322 z m 164.3214,-198.239 15.7799,-7.5382 108.237,99.1293 -17.4953,8.3577 -31.5993,-29.9867 -51.7994,24.7451 3.4697,43.4245 -17.4951,8.3576 z m 21.7288,77.6774 40.8221,-19.5011 -30.2578,-28.9422 q -12.6172,-12.3005 -18.2578,-20.1391 2.5531,9.3135 4.193,26.8579 z"
       id="text6"
       style="font-size:21.3333px;line-height:0;font-family:Garuda;-inkscape-font-specification:Garuda;text-align:center;letter-spacing:4.19px;text-anchor:middle;fill:#ffffff;stroke:#ffffff;stroke-width:8.91038;stroke-linecap:round;stroke-opacity:1;fill-opacity:1"
       aria-label="PANAMA" />
    <path
       id="path1"
       style="opacity:1;fill:#ffffff;fill-opacity:1;stroke:none;stroke-width:11.2449;stroke-dasharray:none"
       d="M 998.02751,208.72282 A 782.90375,782.90375 0 0 0 360.0481,540.7562 c 32.99512,7.10283 65.36596,28.52363 65.36596,28.52363 0,0 65.17434,-20.41331 88.92972,2.05358 23.75545,22.46671 179.72157,23.59851 179.72158,23.59851 l -370.68555,2.73228 a 782.90375,782.90375 0 0 0 -91.29655,243.5039 l 350.98528,-194.53159 126.46816,85.32727 328.7267,-234.29761 233.8104,170.51536 122.5524,-57.74343 372.2866,242.44225 A 782.90375,782.90375 0 0 0 1621.893,518.89789 l -407.2669,-3.01072 c 0,0 155.9662,-1.14899 179.7216,-23.61597 23.7553,-22.46679 88.9298,-2.0362 88.9298,-2.0362 0,0 43.2544,-28.67626 80.7329,-30.699 2.8302,-0.15237 5.64,0.0356 8.423,0.36532 A 782.90375,782.90375 0 0 0 998.02751,208.72264 Z M 1038.2112,508.64749 709.67593,742.80592 582.61605,657.07831 229.73385,852.67158 A 782.90375,782.90375 0 0 0 215.11526,991.63517 782.90375,782.90375 0 0 0 998.02751,1774.53 782.90375,782.90375 0 0 0 1780.9223,991.63517 782.90375,782.90375 0 0 0 1769.3145,865.07989 l -375.3844,-244.46097 -122.8484,57.86523 z" />
    <g
       id="g7"
       transform="matrix(8.9103757,0,0,8.9103757,-104.54829,-695.60187)"
       style="stroke:#000000;stroke-opacity:1">
      <path
         id="ellipse222"
         style="fill:#000000;stroke:#000000;stroke-width:0.905137;stroke-opacity:1;fill-opacity:1"
         d="m 178.48404,244.45273 a 56.469402,0.63866138 0 0 1 -56.46941,0.63866 56.469402,0.63866138 0 0 1 -56.469399,-0.63866 56.469402,0.63866138 0 0 1 56.469399,-0.63866 56.469402,0.63866138 0 0 1 56.46941,0.63866 z" />
      <g
         id="g222"
         transform="matrix(1.9615822,0,0,1.9615822,-82.298745,67.238494)"
         style="display:inline;opacity:1;stroke:#000000;stroke-opacity:1">
        <g
           id="g221"
           transform="matrix(0.8951809,0,0,0.8951809,13.566904,-31.405871)"
           style="stroke:#000000;stroke-opacity:1">
          <path
             id="circle152"
             style="fill:none;stroke:#000000;stroke-width:4;stroke-opacity:1"
             d="m 87.520871,125.11646 a 9.2431536,9.2431536 0 0 1 -9.243153,9.24316 9.2431536,9.2431536 0 0 1 -9.243154,-9.24316 9.2431536,9.2431536 0 0 1 9.243154,-9.24315 9.2431536,9.2431536 0 0 1 9.243153,9.24315 z" />
          <path
             id="circle153"
             style="fill:none;stroke:#000000;stroke-width:3.65392;stroke-opacity:1"
             d="m 132.92507,125.60538 a 8.4434452,8.4434452 0 0 1 -8.44345,8.44344 8.4434452,8.4434452 0 0 1 -8.44344,-8.44344 8.4434452,8.4434452 0 0 1 8.44344,-8.44345 8.4434452,8.4434452 0 0 1 8.44345,8.44345 z" />
          <path
             id="circle154"
             style="fill:#000000;fill-opacity:1;stroke:#000000;stroke-width:1.74489;stroke-opacity:1"
             d="m 82.239406,125.15146 a 4.0320849,4.0320849 0 0 1 -4.032085,4.03208 4.0320849,4.0320849 0 0 1 -4.032085,-4.03208 4.0320849,4.0320849 0 0 1 4.032085,-4.03209 4.0320849,4.0320849 0 0 1 4.032085,4.03209 z" />
          <path
             id="circle155"
             style="fill:#000000;fill-opacity:1;stroke:#000000;stroke-width:1.58195;stroke-opacity:1"
             d="m 128.1174,125.56752 a 3.6555643,3.6555643 0 0 1 -3.65556,3.65556 3.6555643,3.6555643 0 0 1 -3.65557,-3.65556 3.6555643,3.6555643 0 0 1 3.65557,-3.65556 3.6555643,3.6555643 0 0 1 3.65556,3.65556 z" />
          <g
             id="g220"
             style="stroke:#000000;stroke-opacity:1">
            <path
               style="fill:#000000;fill-opacity:1;stroke:#000000;stroke-width:0;stroke-dasharray:none;stroke-opacity:1"
               d="m 80.116959,122.10932 5.424999,-11.57106 c 0,0 -2.858958,-1.32287 -4.38195,-1.12362 -1.522995,0.19926 -4.190172,0.67058 -4.472588,0.67058 -0.282414,0 -0.645539,0.32859 -0.610145,-0.31105 0.03539,-0.63964 4.494022,-1.73131 5.990399,-1.71649 1.496378,0.0148 4.075941,0.52699 4.075941,0.52699 0,0 0.313489,-0.7133 0.680066,-0.64252 0.366578,0.0708 0.52397,-0.039 0.52397,-0.039 l -3.180934,-1.71275 c 0,0 -0.943203,0.44153 -1.256549,0.37578 -0.313346,-0.0658 -0.928671,-0.27407 -0.928671,-0.27407 l -0.07639,-5.82236 0.759481,-0.17221 c 0,0 1.660244,-3.524062 1.95359,-4.11421 0.293349,-0.59015 1.740236,-2.932329 1.944818,-3.311136 0.204581,-0.378806 0.05448,-0.432096 0.153315,-0.45458 0.09883,-0.02249 0.339079,0.124036 0.337529,0.486373 -0.0016,0.362339 -1.669418,3.863845 -1.758902,4.141546 -0.08949,0.277704 -0.300506,1.121601 0.01802,1.155195 0.318526,0.03359 0.430493,0.320394 0.430493,0.320394 l 2.325274,3.797698 1.951538,-2.320648 0.07487,-1.899306 1.28221,-0.164396 c 0,0 0.164224,-4.516726 0.216485,-4.653942 0.05226,-0.137213 0.289248,-0.23695 0.294714,-0.410456 0.0055,-0.173505 0.312124,-1.082214 0.651365,-1.100269 0.339243,-0.01805 0.453294,2.079151 0.453294,2.079151 0,0 0.296513,1.388115 -0.08995,1.438471 -0.386469,0.05035 -0.460848,-0.197676 -0.460848,-0.197676 v 2.420625 c 0,0 0.04503,0.113009 0.0628,0.329819 0.01778,0.216811 0.863212,0.672585 0.863212,0.672585 0,0 0.661148,-0.568569 1.015066,-0.328954 0.353917,0.239612 1.178787,1.195834 0.286369,1.656646 -0.892416,0.46081 -0.867384,-0.08726 -0.975572,0.08826 -0.108191,0.17552 0.116676,0.51297 -0.161854,0.70294 -0.278529,0.18998 -0.866518,-0.096 -0.972981,0.30342 -0.106463,0.39938 -0.490376,1.66262 -0.472752,1.96928 0.01762,0.30665 -0.366104,1.09985 -0.219102,1.15788 0.147,0.058 0.88124,0.53389 1.025901,0.4936 0.144661,-0.0403 3.390998,-0.77784 4.968804,-0.57297 1.577808,0.20487 7.885006,3.66893 8.885326,4.91512 1.00032,1.24619 7.14408,1.15397 8.93812,-0.0462 1.79404,-1.20015 1.44905,-1.86497 1.7201,-2.20378 0.27105,-0.33881 9.21018,-0.38974 9.21018,-0.38974 l 0.84666,-0.78782 5.26342,0.0946 -0.0224,0.68525 -3.24622,0.31588 0.65718,2.12535 -0.98079,0.43612 c 0,0 2.90898,1.92321 3.20929,2.15109 0.30031,0.22787 1.58537,1.56441 1.58537,1.56441 l 2.24194,0.0236 -0.0212,0.55077 c 0,0 -0.86013,-0.20153 -0.95474,0.13438 -0.0946,0.33592 0.16612,1.2869 0.16612,1.2869 0,0 1.38842,2.40399 1.4815,2.75679 0.0931,0.3528 0.39787,0.84975 0.20662,0.7876 -0.19125,-0.0622 -0.50886,0.13306 -0.79391,-0.2998 -0.28505,-0.43287 -1.97845,-3.97461 -4.04683,-5.3615 -2.06839,-1.3869 -4.30531,-2.36326 -7.96824,-1.81762 -2.19397,0.32682 -3.91878,0.98361 -5.2646,1.75845 -0.45269,0.26063 -1.40679,0.10892 -1.63804,0.51102 -2.10804,3.66554 -4.07798,7.0838 -4.07798,7.0838 l 1.05901,1.06166 15.5018,-6.11604 1.74285,0.40077 c 0,0 0.94175,1.27681 0.68599,1.89954 -2.2355,5.44319 -15.93505,7.59644 -15.93505,7.59644 l 0.15673,-1.623 9.07765,0.38135 -2.13846,2.03661 c 0,0 -8.65485,1.27985 -10.02908,1.2833 -0.61226,0.001 -3.75571,-0.0572 -7.10822,0.25346 -0.35933,0.0333 -0.66323,0.53225 -1.02599,0.56268 -3.8494,0.32291 -7.739187,0.44955 -8.425039,-0.36242 -1.257808,-1.4891 -1.249724,-5.98 -2.931611,-10.01666 -0.127976,-0.30715 -0.812133,-0.25967 -0.954131,-0.56445 -2.008177,-4.31028 -5.019737,-5.61385 -5.019737,-5.61385 l -6.570626,12.28973 z"
               id="path155" />
            <g
               id="g159"
               style="stroke:#000000;stroke-opacity:1">
              <path
                 style="fill:#ffffff;fill-opacity:1;stroke:#000000;stroke-width:0.3;stroke-dasharray:none;stroke-opacity:1"
                 d="m 74.665695,128.30792 -2.736814,0.89763"
                 id="path156" />
              <path
                 style="fill:#ffffff;fill-opacity:1;stroke:#000000;stroke-width:0.3;stroke-dasharray:none;stroke-opacity:1"
                 d="m 75.248088,128.86865 -2.736814,0.89763"
                 id="path157" />
              <path
                 style="fill:#ffffff;fill-opacity:1;stroke:#000000;stroke-width:0.3;stroke-dasharray:none;stroke-opacity:1"
                 d="m 74.457029,128.36088 -1.056725,2.67941"
                 id="path158" />
              <path
                 style="fill:#ffffff;fill-opacity:1;stroke:#000000;stroke-width:0.3;stroke-dasharray:none;stroke-opacity:1"
                 d="m 75.260441,128.27071 -1.161865,3.13142"
                 id="path159" />
            </g>
            <g
               id="g163"
               transform="rotate(47.894717,77.721856,125.38956)"
               style="stroke:#000000;stroke-opacity:1">
              <path
                 style="fill:#ffffff;fill-opacity:1;stroke:#000000;stroke-width:0.3;stroke-dasharray:none;stroke-opacity:1"
                 d="m 74.665695,128.30792 -2.736814,0.89763"
                 id="path160" />
              <path
                 style="fill:#ffffff;fill-opacity:1;stroke:#000000;stroke-width:0.3;stroke-dasharray:none;stroke-opacity:1"
                 d="m 75.248088,128.86865 -2.736814,0.89763"
                 id="path161" />
              <path
                 style="fill:#ffffff;fill-opacity:1;stroke:#000000;stroke-width:0.3;stroke-dasharray:none;stroke-opacity:1"
                 d="m 74.457029,128.36088 -1.056725,2.67941"
                 id="path162" />
              <path
                 style="fill:#ffffff;fill-opacity:1;stroke:#000000;stroke-width:0.3;stroke-dasharray:none;stroke-opacity:1"
                 d="m 75.260441,128.27071 -1.161865,3.13142"
                 id="path163" />
            </g>
            <g
               id="g167"
               transform="rotate(-47.442591,77.96241,125.36387)"
               style="stroke:#000000;stroke-opacity:1">
              <path
                 style="fill:#ffffff;fill-opacity:1;stroke:#000000;stroke-width:0.3;stroke-dasharray:none;stroke-opacity:1"
                 d="m 74.665695,128.30792 -2.736814,0.89763"
                 id="path164" />
              <path
                 style="fill:#ffffff;fill-opacity:1;stroke:#000000;stroke-width:0.3;stroke-dasharray:none;stroke-opacity:1"
                 d="m 75.248088,128.86865 -2.736814,0.89763"
                 id="path165" />
              <path
                 style="fill:#ffffff;fill-opacity:1;stroke:#000000;stroke-width:0.3;stroke-dasharray:none;stroke-opacity:1"
                 d="m 74.457029,128.36088 -1.056725,2.67941"
                 id="path166" />
              <path
                 style="fill:#ffffff;fill-opacity:1;stroke:#000000;stroke-width:0.3;stroke-dasharray:none;stroke-opacity:1"
                 d="m 75.260441,128.27071 -1.161865,3.13142"
                 id="path167" />
            </g>
            <g
               id="g171"
               transform="rotate(-136.57973,78.237349,125.31105)"
               style="stroke:#000000;stroke-opacity:1">
              <path
                 style="fill:#ffffff;fill-opacity:1;stroke:#000000;stroke-width:0.3;stroke-dasharray:none;stroke-opacity:1"
                 d="m 74.665695,128.30792 -2.736814,0.89763"
                 id="path168" />
              <path
                 style="fill:#ffffff;fill-opacity:1;stroke:#000000;stroke-width:0.3;stroke-dasharray:none;stroke-opacity:1"
                 d="m 75.248088,128.86865 -2.736814,0.89763"
                 id="path169" />
              <path
                 style="fill:#ffffff;fill-opacity:1;stroke:#000000;stroke-width:0.3;stroke-dasharray:none;stroke-opacity:1"
                 d="m 74.457029,128.36088 -1.056725,2.67941"
                 id="path170" />
              <path
                 style="fill:#ffffff;fill-opacity:1;stroke:#000000;stroke-width:0.3;stroke-dasharray:none;stroke-opacity:1"
                 d="m 75.260441,128.27071 -1.161865,3.13142"
                 id="path171" />
            </g>
            <g
               id="g175"
               transform="matrix(0.6763286,0.73660004,0.73660004,-0.6763286,-67.210154,152.20483)"
               style="stroke:#000000;stroke-opacity:1">
              <path
                 style="fill:#ffffff;fill-opacity:1;stroke:#000000;stroke-width:0.3;stroke-dasharray:none;stroke-opacity:1"
                 d="m 74.665695,128.30792 -2.736814,0.89763"
                 id="path172" />
              <path
                 style="fill:#ffffff;fill-opacity:1;stroke:#000000;stroke-width:0.3;stroke-dasharray:none;stroke-opacity:1"
                 d="m 75.248088,128.86865 -2.736814,0.89763"
                 id="path173" />
              <path
                 style="fill:#ffffff;fill-opacity:1;stroke:#000000;stroke-width:0.3;stroke-dasharray:none;stroke-opacity:1"
                 d="m 74.457029,128.36088 -1.056725,2.67941"
                 id="path174" />
              <path
                 style="fill:#ffffff;fill-opacity:1;stroke:#000000;stroke-width:0.3;stroke-dasharray:none;stroke-opacity:1"
                 d="m 75.260441,128.27071 -1.161865,3.13142"
                 id="path175" />
            </g>
            <g
               id="g179"
               transform="rotate(-177.43079,78.263335,125.19017)"
               style="stroke:#000000;stroke-opacity:1">
              <path
                 style="fill:#ffffff;fill-opacity:1;stroke:#000000;stroke-width:0.3;stroke-dasharray:none;stroke-opacity:1"
                 d="m 74.665695,128.30792 -2.736814,0.89763"
                 id="path176" />
              <path
                 style="fill:#ffffff;fill-opacity:1;stroke:#000000;stroke-width:0.3;stroke-dasharray:none;stroke-opacity:1"
                 d="m 75.248088,128.86865 -2.736814,0.89763"
                 id="path177" />
              <path
                 style="fill:#ffffff;fill-opacity:1;stroke:#000000;stroke-width:0.3;stroke-dasharray:none;stroke-opacity:1"
                 d="m 74.457029,128.36088 -1.056725,2.67941"
                 id="path178" />
              <path
                 style="fill:#ffffff;fill-opacity:1;stroke:#000000;stroke-width:0.3;stroke-dasharray:none;stroke-opacity:1"
                 d="m 75.260441,128.27071 -1.161865,3.13142"
                 id="path179" />
            </g>
            <g
               id="g183"
               transform="rotate(-96.817985,78.150739,125.30859)"
               style="stroke:#000000;stroke-opacity:1">
              <path
                 style="fill:#ffffff;fill-opacity:1;stroke:#000000;stroke-width:0.3;stroke-dasharray:none;stroke-opacity:1"
                 d="m 74.665695,128.30792 -2.736814,0.89763"
                 id="path180" />
              <path
                 style="fill:#ffffff;fill-opacity:1;stroke:#000000;stroke-width:0.3;stroke-dasharray:none;stroke-opacity:1"
                 d="m 75.248088,128.86865 -2.736814,0.89763"
                 id="path181" />
              <path
                 style="fill:#ffffff;fill-opacity:1;stroke:#000000;stroke-width:0.3;stroke-dasharray:none;stroke-opacity:1"
                 d="m 74.457029,128.36088 -1.056725,2.67941"
                 id="path182" />
              <path
                 style="fill:#ffffff;fill-opacity:1;stroke:#000000;stroke-width:0.3;stroke-dasharray:none;stroke-opacity:1"
                 d="m 75.260441,128.27071 -1.161865,3.13142"
                 id="path183" />
            </g>
            <g
               id="g187"
               transform="rotate(83.182015,78.57537,125.1438)"
               style="stroke:#000000;stroke-opacity:1">
              <path
                 style="fill:#ffffff;fill-opacity:1;stroke:#000000;stroke-width:0.3;stroke-dasharray:none;stroke-opacity:1"
                 d="m 74.665695,128.30792 -2.736814,0.89763"
                 id="path184" />
              <path
                 style="fill:#ffffff;fill-opacity:1;stroke:#000000;stroke-width:0.3;stroke-dasharray:none;stroke-opacity:1"
                 d="m 75.248088,128.86865 -2.736814,0.89763"
                 id="path185" />
              <path
                 style="fill:#ffffff;fill-opacity:1;stroke:#000000;stroke-width:0.3;stroke-dasharray:none;stroke-opacity:1"
                 d="m 74.457029,128.36088 -1.056725,2.67941"
                 id="path186" />
              <path
                 style="fill:#ffffff;fill-opacity:1;stroke:#000000;stroke-width:0.3;stroke-dasharray:none;stroke-opacity:1"
                 d="m 75.260441,128.27071 -1.161865,3.13142"
                 id="path187" />
            </g>
            <g
               id="g191"
               transform="translate(46.947829,0.22787242)"
               style="stroke:#000000;stroke-opacity:1">
              <path
                 style="fill:#ffffff;fill-opacity:1;stroke:#000000;stroke-width:0.3;stroke-dasharray:none;stroke-opacity:1"
                 d="m 74.665695,128.30792 -2.736814,0.89763"
                 id="path188" />
              <path
                 style="fill:#ffffff;fill-opacity:1;stroke:#000000;stroke-width:0.3;stroke-dasharray:none;stroke-opacity:1"
                 d="m 75.248088,128.86865 -2.736814,0.89763"
                 id="path189" />
              <path
                 style="fill:#ffffff;fill-opacity:1;stroke:#000000;stroke-width:0.3;stroke-dasharray:none;stroke-opacity:1"
                 d="m 74.457029,128.36088 -1.056725,2.67941"
                 id="path190" />
              <path
                 style="fill:#ffffff;fill-opacity:1;stroke:#000000;stroke-width:0.3;stroke-dasharray:none;stroke-opacity:1"
                 d="m 75.260441,128.27071 -1.161865,3.13142"
                 id="path191" />
            </g>
            <g
               id="g195"
               transform="rotate(47.894717,100.2971,178.63602)"
               style="stroke:#000000;stroke-opacity:1">
              <path
                 style="fill:#ffffff;fill-opacity:1;stroke:#000000;stroke-width:0.3;stroke-dasharray:none;stroke-opacity:1"
                 d="m 74.665695,128.30792 -2.736814,0.89763"
                 id="path192" />
              <path
                 style="fill:#ffffff;fill-opacity:1;stroke:#000000;stroke-width:0.3;stroke-dasharray:none;stroke-opacity:1"
                 d="m 75.248088,128.86865 -2.736814,0.89763"
                 id="path193" />
              <path
                 style="fill:#ffffff;fill-opacity:1;stroke:#000000;stroke-width:0.3;stroke-dasharray:none;stroke-opacity:1"
                 d="m 74.457029,128.36088 -1.056725,2.67941"
                 id="path194" />
              <path
                 style="fill:#ffffff;fill-opacity:1;stroke:#000000;stroke-width:0.3;stroke-dasharray:none;stroke-opacity:1"
                 d="m 75.260441,128.27071 -1.161865,3.13142"
                 id="path195" />
            </g>
            <g
               id="g199"
               transform="rotate(-47.442591,100.97449,72.770158)"
               style="stroke:#000000;stroke-opacity:1">
              <path
                 style="fill:#ffffff;fill-opacity:1;stroke:#000000;stroke-width:0.3;stroke-dasharray:none;stroke-opacity:1"
                 d="m 74.665695,128.30792 -2.736814,0.89763"
                 id="path196" />
              <path
                 style="fill:#ffffff;fill-opacity:1;stroke:#000000;stroke-width:0.3;stroke-dasharray:none;stroke-opacity:1"
                 d="m 75.248088,128.86865 -2.736814,0.89763"
                 id="path197" />
              <path
                 style="fill:#ffffff;fill-opacity:1;stroke:#000000;stroke-width:0.3;stroke-dasharray:none;stroke-opacity:1"
                 d="m 74.457029,128.36088 -1.056725,2.67941"
                 id="path198" />
              <path
                 style="fill:#ffffff;fill-opacity:1;stroke:#000000;stroke-width:0.3;stroke-dasharray:none;stroke-opacity:1"
                 d="m 75.260441,128.27071 -1.161865,3.13142"
                 id="path199" />
            </g>
            <g
               id="g203"
               transform="rotate(-136.57973,101.24058,116.62472)"
               style="stroke:#000000;stroke-opacity:1">
              <path
                 style="fill:#ffffff;fill-opacity:1;stroke:#000000;stroke-width:0.3;stroke-dasharray:none;stroke-opacity:1"
                 d="m 74.665695,128.30792 -2.736814,0.89763"
                 id="path200" />
              <path
                 style="fill:#ffffff;fill-opacity:1;stroke:#000000;stroke-width:0.3;stroke-dasharray:none;stroke-opacity:1"
                 d="m 75.248088,128.86865 -2.736814,0.89763"
                 id="path201" />
              <path
                 style="fill:#ffffff;fill-opacity:1;stroke:#000000;stroke-width:0.3;stroke-dasharray:none;stroke-opacity:1"
                 d="m 74.457029,128.36088 -1.056725,2.67941"
                 id="path202" />
              <path
                 style="fill:#ffffff;fill-opacity:1;stroke:#000000;stroke-width:0.3;stroke-dasharray:none;stroke-opacity:1"
                 d="m 75.260441,128.27071 -1.161865,3.13142"
                 id="path203" />
            </g>
            <g
               id="g207"
               transform="matrix(0.6763286,0.73660004,0.73660004,-0.6763286,-20.699951,153.23875)"
               style="stroke:#000000;stroke-opacity:1">
              <path
                 style="fill:#ffffff;fill-opacity:1;stroke:#000000;stroke-width:0.3;stroke-dasharray:none;stroke-opacity:1"
                 d="m 74.665695,128.30792 -2.736814,0.89763"
                 id="path204" />
              <path
                 style="fill:#ffffff;fill-opacity:1;stroke:#000000;stroke-width:0.3;stroke-dasharray:none;stroke-opacity:1"
                 d="m 75.248088,128.86865 -2.736814,0.89763"
                 id="path205" />
              <path
                 style="fill:#ffffff;fill-opacity:1;stroke:#000000;stroke-width:0.3;stroke-dasharray:none;stroke-opacity:1"
                 d="m 74.457029,128.36088 -1.056725,2.67941"
                 id="path206" />
              <path
                 style="fill:#ffffff;fill-opacity:1;stroke:#000000;stroke-width:0.3;stroke-dasharray:none;stroke-opacity:1"
                 d="m 75.260441,128.27071 -1.161865,3.13142"
                 id="path207" />
            </g>
            <g
               id="g211"
               transform="rotate(-177.43079,101.3171,125.23341)"
               style="stroke:#000000;stroke-opacity:1">
              <path
                 style="fill:#ffffff;fill-opacity:1;stroke:#000000;stroke-width:0.3;stroke-dasharray:none;stroke-opacity:1"
                 d="m 74.665695,128.30792 -2.736814,0.89763"
                 id="path208" />
              <path
                 style="fill:#ffffff;fill-opacity:1;stroke:#000000;stroke-width:0.3;stroke-dasharray:none;stroke-opacity:1"
                 d="m 75.248088,128.86865 -2.736814,0.89763"
                 id="path209" />
              <path
                 style="fill:#ffffff;fill-opacity:1;stroke:#000000;stroke-width:0.3;stroke-dasharray:none;stroke-opacity:1"
                 d="m 74.457029,128.36088 -1.056725,2.67941"
                 id="path210" />
              <path
                 style="fill:#ffffff;fill-opacity:1;stroke:#000000;stroke-width:0.3;stroke-dasharray:none;stroke-opacity:1"
                 d="m 75.260441,128.27071 -1.161865,3.13142"
                 id="path211" />
            </g>
            <g
               id="g215"
               transform="rotate(-96.817985,101.15415,105.21262)"
               style="stroke:#000000;stroke-opacity:1">
              <path
                 style="fill:#ffffff;fill-opacity:1;stroke:#000000;stroke-width:0.3;stroke-dasharray:none;stroke-opacity:1"
                 d="m 74.665695,128.30792 -2.736814,0.89763"
                 id="path212" />
              <path
                 style="fill:#ffffff;fill-opacity:1;stroke:#000000;stroke-width:0.3;stroke-dasharray:none;stroke-opacity:1"
                 d="m 75.248088,128.86865 -2.736814,0.89763"
                 id="path213" />
              <path
                 style="fill:#ffffff;fill-opacity:1;stroke:#000000;stroke-width:0.3;stroke-dasharray:none;stroke-opacity:1"
                 d="m 74.457029,128.36088 -1.056725,2.67941"
                 id="path214" />
              <path
                 style="fill:#ffffff;fill-opacity:1;stroke:#000000;stroke-width:0.3;stroke-dasharray:none;stroke-opacity:1"
                 d="m 75.260441,128.27071 -1.161865,3.13142"
                 id="path215" />
            </g>
            <g
               id="g219"
               transform="rotate(83.182015,101.24802,151.86189)"
               style="stroke:#000000;stroke-opacity:1">
              <path
                 style="fill:#ffffff;fill-opacity:1;stroke:#000000;stroke-width:0.3;stroke-dasharray:none;stroke-opacity:1"
                 d="m 74.665695,128.30792 -2.736814,0.89763"
                 id="path216" />
              <path
                 style="fill:#ffffff;fill-opacity:1;stroke:#000000;stroke-width:0.3;stroke-dasharray:none;stroke-opacity:1"
                 d="m 75.248088,128.86865 -2.736814,0.89763"
                 id="path217" />
              <path
                 style="fill:#ffffff;fill-opacity:1;stroke:#000000;stroke-width:0.3;stroke-dasharray:none;stroke-opacity:1"
                 d="m 74.457029,128.36088 -1.056725,2.67941"
                 id="path218" />
              <path
                 style="fill:#ffffff;fill-opacity:1;stroke:#000000;stroke-width:0.3;stroke-dasharray:none;stroke-opacity:1"
                 d="m 75.260441,128.27071 -1.161865,3.13142"
                 id="path219" />
            </g>
          </g>
        </g>
        <path
           style="fill:#000000;fill-opacity:1;stroke:#000000;stroke-width:0.18585;stroke-opacity:1"
           d="m 126.66956,62.719689 c -0.60705,-2.59835 -0.5457,-5.22561 -0.87621,-7.85522 -0.0756,-0.60101 0.97951,-1.71817 1.31818,-1.89603 1.71932,-0.18356 2.90783,-0.25918 4.55993,-0.36664 1.37068,-0.0892 3.0808,-0.32615 3.5347,-0.31531 0.41854,0.01 1.60169,0.78603 1.77448,1.06251 0.23091,0.36947 0.34756,3.23882 0.47479,4.41443 0.12721,1.1756 0.3319,3.99746 -0.29151,4.55305 -0.62341,0.55561 -8.9322,1.31806 -9.42292,1.16119 -0.49072,-0.15687 -1.07124,-0.75796 -1.07124,-0.75796 z"
           id="path221" />
      </g>
    </g>
    <path
       style="fill:none;fill-opacity:1;stroke:#ffffff;stroke-width:11.5835;stroke-linecap:round;stroke-dasharray:none;stroke-opacity:1"
       d="m 137.81131,1310.8717 c 100.65916,302.5555 348.41234,440.615 348.41234,440.615"
       id="path3" />
    <path
       style="fill:none;fill-opacity:1;stroke:#ffffff;stroke-width:11.5835;stroke-linecap:round;stroke-dasharray:none;stroke-opacity:1"
       d="m 1840.2237,1310.8717 c -100.6591,302.5555 -348.4123,440.615 -348.4123,440.615"
       id="path6" />
    <path
       style="font-size:202.667px;line-height:0;font-family:'Liberation Sans';-inkscape-font-specification:'Liberation Sans';text-align:center;letter-spacing:19.95px;text-anchor:middle;white-space:pre;fill:#ffffff;stroke:#ffffff;stroke-width:10.2;stroke-linecap:round;fill-opacity:1;stroke-opacity:1"
       d="m 85.797992,1099.5047 q 21.482528,-4.0976 39.194728,1.0871 17.69365,5.0875 29.27449,18.7959 11.58084,13.7084 15.56718,34.6076 4.02343,21.0938 -1.6012,38.0839 -5.64317,16.893 -20.24046,28.0389 -14.69449,11.1645 -36.27422,15.2806 -32.855638,6.2669 -54.754888,-8.1934 -21.99647,-14.4417 -28.11504,-46.5197 -3.98635,-20.8993 1.44387,-37.8524 5.33301,-16.9345 19.63868,-28.0248 14.28712,-11.1876 35.86686,-15.3037 z m 3.61552,18.9552 q -25.56518,4.8763 -37.69865,20.4887 -12.15202,15.5151 -7.70214,38.8446 4.48695,23.5238 21.32087,33.6109 16.83393,10.0871 42.787938,5.1367 25.75959,-4.9134 38.45776,-20.7343 12.58242,-15.8994 8.18817,-38.9373 -4.52404,-23.7182 -21.51529,-33.5739 -17.107,-9.9342 -43.838658,-4.8354 z m 63.603388,-139.45486 -0.16596,19.59306 -139.909478,55.718 0.16847,-19.8899 98.490208,-37.7609 24.71019,-8.1035 -24.56937,-8.52086 -97.838098,-39.226 0.16848,-19.89 z m 5.69666,-94.309 -136.867188,-26.6233 20.19896,-103.8403 15.1535,2.9476 -16.58998,85.287 43.9063,8.5407 15.456268,-79.4588 14.95922,2.9099 -15.45626,79.4587 47.69467,9.2776 17.36468,-89.2697 15.1535,2.9476 z m 70.87224,-242.9011 -67.22423,12.0017 -16.21017,40.3051 53.7096,21.6013 -7.05272,17.536 -129.362098,-52.0277 24.48142,-60.8709 q 8.788198,-21.8511 23.375358,-29.7437 14.53228,-8.0214 31.97642,-1.0056 14.41438,5.7972 20.84106,18.1949 6.46362,12.3058 3.08937,28.1213 l 70.49954,-14.3109 z m -93.21244,-34.5022 q -11.29279,-4.5418 -20.27043,0.8071 -9.03252,5.2202 -14.82978,19.6346 l -16.727128,41.5905 47.741868,19.2011 17.02253,-42.325 q 5.57571,-13.8635 2.17678,-23.9768 -3.4538,-10.242 -15.11384,-14.9315 z m 124.18312,-25.8925 -118.18217,-73.9892 10.02977,-16.0204 105.09741,65.7973 37.38846,-59.7201 13.0847,8.1918 z m 139.36607,-184.26452 -41.0106,-15.30483 -42.3536,47.35405 19.7018,39.1293 -13.0623,14.6045 -65.99453,-135.36573 14.31583,-16.00596 141.2678,51.20544 z m -125.1048,-47.90141 1.4715,2.51104 q 4.4729,7.31963 10.8291,19.51016 l 22.2761,43.82158 34.7669,-38.8716 -46.2393,-17.32611 q -6.9366,-2.48674 -15.201,-6.16097 z m 238.0014,-45.84271 -131.3056,-49.27267 6.209,7.33711 10.4057,12.84825 56.1154,73.69183 -13.3842,10.19189 -84.4728,-110.9314 17.4782,-13.30941 132.4151,49.42289 q -12.6955,-14.71177 -17.9713,-21.64006 l -55.3959,-72.74706 13.5417,-10.3118 84.4728,110.9314 z m 140.2374,-158.37165 q 9.4596,19.38833 9.0164,37.66245 -0.4866,18.18517 -10.5857,32.692 -10.099,14.50683 -28.2422,23.35897 l -46.87,22.86804 -61.1405,-125.31267 41.4448,-20.22107 q 31.8395,-15.53464 56.9041,-7.94414 25.1101,7.45817 39.4731,36.89642 z m -17.076,8.33143 q -11.3689,-23.30158 -30.1207,-29.23742 -18.7062,-6.06817 -42.8972,5.73469 l -24.102,11.75946 47.8623,98.09785 27.9263,-13.62535 q 13.7853,-6.72589 21.2403,-17.8506 7.5439,-11.16809 7.5926,-25.28581 0.049,-14.11773 -7.5016,-29.59282 z m 282.667,0.0786 -14.219,-91.927818 q -2.3598,-15.2561 -3.6579,-29.4748 -2.0843,18.24661 -4.3705,28.7139 l -21.076,99.389828 -13.1046,2.02697 -50.6082,-88.301998 -8.048,-15.77815 -4.8912,-10.25833 1.9724,10.80992 3.2501,18.42285 14.2191,91.927818 -16.6253,2.57153 -21.3134,-137.793928 24.5467,-3.79679 51.452,89.873768 q 2.8484,5.4674 5.6374,11.84522 2.8716,6.2649 3.9121,9.108 0.1773,-4.03283 1.397,-12.33244 1.3022,-8.41253 1.8647,-10.60237 l 21.2101,-101.112858 23.9599,-3.70602 21.3134,137.793928 z M 1124.5586,87.12194 q -1.3857,21.82588 -10.8211,37.68703 -9.3366,15.86742 -25.4987,23.66637 -16.162,7.79894 -37.3954,6.45088 -21.4308,-1.3606 -36.4832,-11.04212 -14.9535,-9.67524 -22.10965,-26.58976 -7.15,-17.01328 -5.758,-38.937928 2.1192,-33.38076 21.58105,-50.98514 19.4682,-17.70314 52.0589,-15.63402 21.2333,1.34806 36.2981,10.83205 15.0711,9.38524 22.2462,26.00348 7.2737,16.62451 5.8818,38.549158 z m -19.2581,-1.22266 q 1.649,-25.973788 -10.4468,-41.615388 -11.997,-15.63532 -35.6993,-17.14013 -23.8998,-1.51736 -37.8641,12.27143 -13.9643,13.78878 -15.6384,40.15761 -1.6616,26.171308 10.4954,42.411738 12.2619,16.14793 35.668,17.63393 24.0973,1.52989 37.8766,-12.46895 13.8843,-14.09133 15.6086,-41.25024 z m 144.1407,-25.387268 -30.8505,120.095828 -18.2109,-4.67805 30.8505,-120.095828 -46.3897,-11.91671 3.8409,-14.95207 110.9904,28.51147 -3.8409,14.95207 z m 200.0426,136.759548 q -9.3051,19.79153 -23.9066,31.07869 -14.5119,11.32925 -32.4088,12.64709 -17.8969,1.31783 -37.1511,-7.73464 -19.4333,-9.13667 -29.8777,-23.66997 -10.3548,-14.4912 -10.7985,-32.85191 -0.4016,-18.45026 8.9456,-38.33135 14.2313,-30.26939 38.7988,-39.4954 24.6095,-9.31557 54.1625,4.57892 19.2542,9.05247 29.7828,23.40666 10.5707,14.26464 11.1407,32.35668 0.6595,18.13415 -8.6877,38.01523 z m -17.4631,-8.21037 q 11.0735,-23.55282 5.568,-42.54378 -5.416,-18.94885 -26.909,-29.05393 -21.6722,-10.18929 -39.7249,-2.49303 -18.0526,7.69626 -29.2945,31.6073 -11.1577,23.73192 -5.8153,43.30231 5.4741,19.52294 26.6985,29.50171 21.8513,10.27349 39.8091,2.31391 18.0894,-8.00702 29.6681,-32.63449 z m 105.7071,156.10362 5.7289,-68.04644 -34.7659,-26.05011 -34.7137,46.32811 -15.1259,-11.33387 83.6096,-111.58345 52.5052,39.3422 q 18.848,14.12285 22.7146,30.25135 4.0051,16.10866 -7.2694,31.15539 -9.3163,12.43336 -22.9515,15.4478 -13.5559,3.07378 -27.9676,-4.26249 l -4.3418,71.80624 z m 57.3596,-81.17165 q 7.2988,-9.74078 4.4443,-19.79369 -2.716,-10.07276 -15.1494,-19.38909 l -35.8746,-26.88087 -30.8566,41.18055 36.5081,27.35559 q 11.9582,8.96029 22.6059,8.28261 10.7861,-0.69754 18.3223,-10.7551 z m 128.8138,87.83894 q -15.4569,-17.24227 -35.1706,-16.84693 -19.6399,0.32927 -38.9454,17.6358 -19.0843,17.10836 -21.8091,37.49258 -2.585,20.39185 12.6738,37.41309 19.5524,21.8107 50.9844,13.4355 l 4.5572,16.6472 q -19.1575,5.6115 -36.5943,0.2445 -17.3708,-5.2932 -31.1103,-20.6197 -14.0698,-15.6949 -17.8902,-33.0026 -3.6806,-17.30009 2.9872,-34.17535 6.8075,-16.86762 23.3866,-31.73009 24.8318,-22.26068 50.9277,-21.46662 26.0959,0.79406 47.3658,24.5206 14.8624,16.5791 18.3525,33.5184 3.4901,16.9393 -4.5674,33.59852 l -16.3771,-9.37364 q 5.8265,-11.73538 3.416,-24.06064 -2.3445,-12.25157 -12.1868,-23.23062 z m 52.2797,187.64614 -49.551,29.7419 -9.6763,-16.1211 49.551,-29.7419 42.3965,-88.003 10.6948,17.8181 -35.0847,70.5723 78.679,2.0573 10.6949,17.818 z m 135.0045,128.1943 q -7.9472,-21.7498 -26.3974,-28.7048 -18.3573,-6.9889 -42.7097,1.9092 -24.0736,8.7962 -34.1745,26.7102 -9.974,17.973 -2.1287,39.4441 10.0528,27.5126 42.3469,31.4109 l -1.9518,17.149 q -19.8713,-1.9054 -34.0674,-13.3648 -14.1621,-11.3664 -21.2263,-30.6996 -7.2339,-19.798 -4.3526,-37.2865 3.0083,-17.4296 15.4669,-30.6212 12.5855,-13.1326 33.4988,-20.774 31.3235,-11.4453 55.2577,-1.0155 23.9342,10.4298 34.8701,40.359 7.6415,20.9134 4.5903,37.9372 -3.0511,17.0239 -16.7198,29.4986 l -11.7241,-14.7859 q 9.7685,-8.7318 12.1082,-21.0707 2.3737,-12.2459 -2.6866,-26.0952 z m -88.4077,143.4551 137.3429,-24.0492 3.26,18.6178 -122.1367,21.3866 12.1527,69.4025 -15.2062,2.6626 z m 19.3559,131.3365 139.4319,-0.4174 0.3167,105.78606 -15.4375,0.046 -0.2601,-86.88506 -44.729,0.1339 0.2423,80.94756 -15.2395,0.046 -0.2424,-80.94766 -48.5884,0.1455 0.2723,90.94236 -15.4375,0.046 z m 13.8054,269.51726 q -18.9828,-3.4672 -26.6787,-20.2639 -7.7136,-16.6995 -2.7884,-43.6649 9.1569,-50.1342 45.4655,-51.7514 l 0.3125,18.6673 q -12.9322,0.857 -20.6222,9.9144 -7.5927,9.0752 -10.7754,26.5005 -3.2894,18.0093 1.0655,28.8643 4.4344,10.9701 16.4082,13.1571 6.7171,1.2269 11.472,-1.1237 4.7372,-2.2533 8.4764,-7.3042 3.7392,-5.051 6.9935,-12.4037 3.2542,-7.3527 7.1028,-16.3069 6.5712,-15.5993 11.72,-23.4107 5.131,-7.714 10.4007,-11.7813 5.367,-4.0495 11.7853,-5.5933 6.4005,-1.4464 14.091,-0.042 17.62,3.2183 24.7064,18.3948 7.0687,15.2738 2.4813,40.3896 -4.2673,23.3636 -13.7291,34.411 -9.3646,11.0652 -27.502,12.8829 l 0.1303,-18.8882 q 11.4541,-1.0264 17.8684,-8.6067 6.5117,-7.5625 9.2499,-22.5541 3.0049,-16.4518 -0.8642,-26.1114 -3.869,-9.6597 -14.6746,-11.6334 -6.3277,-1.1557 -11.1182,1.3896 -4.7109,2.6604 -8.7871,8.4546 -3.9788,5.812 -11.6142,23.933 -2.6159,6.0609 -5.3114,12.0067 -2.616,6.0609 -5.8067,11.4133 -3.0933,5.3701 -6.8232,9.8192 -3.7477,4.5465 -8.512,7.4989 -4.7642,2.9525 -10.6865,3.9833 -5.94,1.1282 -13.4358,-0.2409 z"
       id="text1"
       aria-label="OVERLAND MOTORCYCLES" />
  </g>
</svg>
