<?xml version="1.0" encoding="UTF-8" standalone="no"?>
<!-- Created with Inkscape (http://www.inkscape.org/) -->

<svg
   width="210mm"
   height="40mm"
   viewBox="0 0 210 40"
   version="1.1"
   id="svg1"
   xmlns="http://www.w3.org/2000/svg"
   xmlns:svg="http://www.w3.org/2000/svg">
  <defs
     id="defs1" />
  <path
     style="display:none;fill:#afb2cb;fill-opacity:1;stroke-width:0.264583"
     d="m -3.9659878,29.277672 c 0,0 10.5319149,-1.685107 13.2702126,-1.685107 2.7382982,0 10.3212762,4.002128 12.4276592,3.79149 2.106383,-0.210639 7.372341,-2.106383 9.057446,-2.106383 1.685107,0 3.159575,2.738297 4.634045,2.527659 1.474467,-0.210638 9.478721,-2.738298 10.953191,-2.948936 1.474467,-0.210638 15.587234,-5.964716 17.061701,-5.754078 1.474467,0.210638 6.951065,-6.319149 8.846809,-6.319149 1.895743,0 5.055317,1.685107 5.055317,1.685107 0,0 -0.210637,-4.423405 5.05532,-5.265958 5.265957,-0.842553 7.188031,1.237501 7.188031,1.237501 0,0 -0.02633,-1.658777 3.343883,-2.290692 3.370215,-0.631915 10.321273,-1.895745 10.321273,-1.895745 0,0 0.84255,-2.1063827 1.89574,-1.8957442 1.0532,0.2106382 1.47447,3.3702132 3.37022,2.7382982 1.89574,-0.631915 3.58085,3.159574 6.10851,3.159574 2.52766,0 8.84681,5.265957 12.21702,5.055319 3.37021,-0.210639 15.19151,9.287439 17.92981,7.602333 2.7383,-1.685106 9.23376,-5.476596 12.39333,-5.265957 3.15958,0.210638 11.25022,5.830792 12.52368,4.855266 7.7301,-5.921611 16.10453,3.983525 17.57899,3.772887 1.47447,-0.210638 -3.9492,-6.521771 -1.84281,-6.311132 2.10638,0.210638 1.89574,-2.738298 5.05532,-3.370213 3.15957,-0.631915 1.89574,5.476596 5.47659,5.687234 3.58085,0.210638 16.61487,-1.072546 16.61487,-1.072546 l -1.05319,48.236171 c 0,0 -236.757436,-6.529787 -235.914883,-7.161702 0.842554,-0.631915 20.4319152,-37.005497 20.4319152,-37.005497 z"
     id="path3" />
  <g
     id="layer1">
    <path
       style="display:inline;fill:#777ba6;fill-opacity:1;stroke-width:0.264583"
       d="m -6.7404256,22.11702 c 0,0 14.3234037,8.004256 17.9042546,8.004256 3.580851,0 16.21915,-4.423404 18.957447,-4.634043 2.738297,-0.210638 5.687235,1.053192 5.687235,1.053192 0,0 5.476594,-5.897873 8.636169,-5.476596 3.159575,0.421277 7.372339,4.002128 7.372339,4.002128 0,0 2.52766,-3.159575 4.844682,-2.738298 2.317023,0.421276 15.165956,6.31915 17.693616,6.31915 2.52766,0 13.480852,-4.844682 17.482979,-4.844682 4.002123,0 21.485104,11.374469 26.751064,12.638299 5.26596,1.263829 29.06808,-3.79149 30.96383,-5.265957 1.89574,-1.47447 12.21702,-7.793619 15.3766,-7.372342 3.15957,0.421277 7.58298,3.159574 9.68936,3.370213 2.10638,0.210638 11.79574,-7.582979 14.95532,-7.793617 3.15957,-0.210639 7.79361,6.529787 7.79361,6.529787 0,0 2.31703,-2.738298 3.79149,-2.52766 1.47447,0.210639 16.85107,7.161704 16.85107,7.161704 V 65.087233 L -7.1617022,66.772338 Z"
       id="path2" />
    <path
       style="display:none;fill:#575b85;fill-opacity:1;stroke-width:0.264583"
       d="m -36.440425,45.076597 c 0,0 29.4392443,-8.498657 33.702127,-8.636171 6.529787,-0.21064 20.010638,-5.05532 21.906383,-4.634042 1.895745,0.421275 8.425532,4.844679 12.638297,5.687232 4.212768,0.842555 23.591491,-6.401329 25.276596,-6.190691 1.685107,0.210639 6.108512,2.317021 6.108512,2.317021 0,0 6.529787,-4.002127 12.217019,-4.212766 5.687234,-0.210638 12.217021,7.243886 20.853193,7.033246 4.411308,-0.107594 14.310008,-4.089414 28.381178,-6.076631 13.47645,-1.903228 25.07247,-5.400883 27.64861,-5.297838 5.26596,0.210638 13.69149,9.268084 15.79787,9.478724 2.10638,0.210637 6.10851,-4.844681 7.79362,-4.212767 1.6851,0.631915 4.84468,1.685107 4.84468,1.685107 0,0 2.94893,-3.370213 6.31915,-4.002128 3.37021,-0.631914 12.63809,4.636504 15.16595,4.844681 17.90426,1.47447 15.3766,18.746809 15.3766,18.746809"
       id="path1" />
  </g>
</svg>
